<svg width="24" height="24" viewBox="0 0 24 24" fill="none" xmlns="http://www.w3.org/2000/svg">
<path d="M10.75 1H12.75V3.5C15.5114 3.5 17.75 5.73858 17.75 8.5H15.75C15.75 6.84315 14.4069 5.5 12.75 5.5H10.3397C9.1134 5.5 8.0918 6.44001 7.98996 7.66209C7.89204 8.83713 8.67718 9.90387 9.82821 10.1597L15.2494 11.3644C18.4043 12.0654 19.7822 15.7904 17.8431 18.3758C16.8402 19.713 15.2663 20.5 13.5948 20.5H12.75V23H10.75V20.5C7.71243 20.5 5.25 18.0376 5.25 15H7.25C7.25 16.933 8.817 18.5 10.75 18.5H13.5948C14.6368 18.5 15.6179 18.0094 16.2431 17.1758C17.3104 15.7528 16.552 13.7026 14.8156 13.3167L9.39435 12.112C7.26699 11.6393 5.81589 9.66773 5.99687 7.496C6.18509 5.23733 8.07322 3.5 10.3397 3.5H10.75V1Z" fill="#A4A4A4" fill-opacity="0.96"/>
</svg>
