<svg width="24" height="24" viewBox="0 0 24 24" fill="none" xmlns="http://www.w3.org/2000/svg">
<path d="M10.1539 5.50049V7.5H8.15394V5.50049C8.15394 3.328 9.9383 1.50049 12.1539 1.50049C14.3696 1.50049 16.1539 3.328 16.1539 5.50049V7.5H14.1539V5.50049C14.1539 4.41952 13.252 3.50049 12.1539 3.50049C11.0559 3.50049 10.1539 4.41952 10.1539 5.50049Z" fill="#A4A4A4" fill-opacity="0.96"/>
<path d="M3.36945 17.2349L4.01836 7.50098H6.0228L5.36502 17.3679C5.28807 18.5223 6.20367 19.501 7.36059 19.501H16.9473C18.1042 19.501 19.0198 18.5223 18.9428 17.3679L18.285 7.50098H20.2894L20.9384 17.2349C21.0923 19.5436 19.2611 21.501 16.9473 21.501H7.36059C5.04674 21.501 3.21554 19.5436 3.36945 17.2349Z" fill="#A4A4A4" fill-opacity="0.96"/>
</svg>
