<svg width="24" height="24" viewBox="0 0 24 24" fill="none" xmlns="http://www.w3.org/2000/svg">
<path d="M12.1538 22.5C11.9247 22.3625 11.6998 22.2281 11.4792 22.0961C6.88519 19.3491 4.15381 17.7158 4.15381 13.5V6L12.1538 2L16.8867 4.36643L15.3748 5.84657L12.1538 4.23607L6.15381 7.23607V13.5C6.15381 15.1303 6.65637 16.1199 7.66535 17.0905C8.67266 18.0595 10.1053 18.9404 12.1538 20.1685C14.2024 18.9404 15.635 18.0595 16.6423 17.0905C17.6512 16.1199 18.1538 15.1303 18.1538 13.5V13L20.1538 11V13.5C20.1538 17.7158 17.4224 19.3491 12.8284 22.0961C12.6078 22.2281 12.3829 22.3625 12.1538 22.5Z" fill="white" fill-opacity="0.96"/>
<path d="M12.5681 12.2145L19.5915 5.55902L20.8423 6.80981L13.2752 14.3358C12.8846 14.7264 12.2515 14.7264 11.861 14.3358L8.23962 10.7145L9.65384 9.30029L12.5681 12.2145Z" fill="white" fill-opacity="0.96"/>
</svg>
