<svg width="24" height="24" viewBox="0 0 24 24" fill="none" xmlns="http://www.w3.org/2000/svg">
<path d="M13.1538 8.26795C12.7725 8.04782 12.3293 7.95965 11.8928 8.01711C11.4563 8.07458 11.0509 8.27447 10.7396 8.58579C10.4283 8.89711 10.2284 9.30245 10.1709 9.73895C10.1447 9.93785 10.1488 10.1381 10.1818 10.3333L8.20976 10.6667C8.14377 10.2763 8.13567 9.87567 8.18803 9.4779C8.30297 8.6049 8.70275 7.79421 9.32539 7.17158C9.94802 6.54894 10.7587 6.14916 11.6317 6.03422C12.5047 5.91929 13.3912 6.09563 14.1538 6.5359C14.9164 6.97617 15.5124 7.65576 15.8493 8.46927C16.1863 9.28278 16.2454 10.1847 16.0175 11.0353C15.7896 11.8858 15.2874 12.6374 14.5889 13.1734C14.1662 13.4978 13.7896 13.8134 13.5192 14.1449C13.2528 14.4713 13.1538 14.7347 13.1538 14.9635V15H11.1538V14.9635C11.1538 14.1079 11.5378 13.4096 11.9695 12.8805C12.3971 12.3564 12.9337 11.9225 13.3713 11.5867C13.7206 11.3187 13.9717 10.9429 14.0857 10.5176C14.1996 10.0924 14.1701 9.64139 14.0016 9.23464C13.8331 8.82788 13.5351 8.48809 13.1538 8.26795Z" fill="white" fill-opacity="0.96"/>
<path d="M13.1538 18V16H11.1538V18H13.1538Z" fill="white" fill-opacity="0.96"/>
<path d="M12.1538 22C17.6767 22 22.1538 17.5228 22.1538 12C22.1538 6.47715 17.6767 2 12.1538 2C6.63096 2 2.15381 6.47715 2.15381 12C2.15381 17.5228 6.63096 22 12.1538 22ZM12.1538 20C7.73553 20 4.15381 16.4183 4.15381 12C4.15381 7.58172 7.73553 4 12.1538 4C16.5721 4 20.1538 7.58172 20.1538 12C20.1538 16.4183 16.5721 20 12.1538 20Z" fill="white" fill-opacity="0.96"/>
</svg>
