<svg width="24" height="24" viewBox="0 0 24 24" fill="none" xmlns="http://www.w3.org/2000/svg">
<path d="M3.10492 7.63262L2.998 7.46411L1.30957 8.53613C1.36945 8.63044 1.43013 8.72636 1.4917 8.8237C2.00819 9.6402 2.58772 10.5564 3.28608 11.4536L1.44668 13.293L2.86089 14.7072L4.61352 12.9546C5.52089 13.8451 6.59928 14.6381 7.91624 15.1915L7.19226 17.7254L9.11531 18.2748L9.82902 15.7768C10.544 15.921 11.3167 16.0001 12.1538 16.0001C12.9909 16.0001 13.7635 15.921 14.4785 15.7768L15.1923 18.2748L17.1153 17.7254L16.3913 15.1915C17.7083 14.6381 18.7867 13.8451 19.6941 12.9546L21.4467 14.7072L22.8609 13.293L21.0215 11.4536C21.7198 10.5564 22.2992 9.64047 22.8157 8.82397C22.8773 8.72654 22.9381 8.63053 22.998 8.53613L21.3096 7.46411L21.2026 7.63262C19.2917 10.6452 17.1635 14.0001 12.1538 14.0001C7.14406 14.0001 5.01589 10.6452 3.10492 7.63262Z" fill="white" fill-opacity="0.96"/>
</svg>
