<svg width="24" height="24" viewBox="0 0 24 24" fill="none" xmlns="http://www.w3.org/2000/svg">
<path fill-rule="evenodd" clip-rule="evenodd" d="M6.84781 5.62378C4.00386 5.62378 0.984375 8.00959 0.984375 11.5893C0.984375 14.7636 3.4888 17.6238 6.98971 17.6238C8.83161 17.6238 10.0987 16.8282 11.0063 15.686C11.87 14.5991 12.3791 13.2814 12.8931 12.0063C13.4091 10.7273 13.8679 9.6336 14.5273 8.83919C15.133 8.10963 15.9025 7.64058 17.1412 7.64058C19.1517 7.64058 20.9844 9.44461 20.9844 11.5637C20.9844 13.9528 19.0767 15.6081 17.0119 15.6081H16.635L18.817 13.0624H16.1828L13.7409 15.9114C13.4199 16.2859 13.4199 16.8385 13.7409 17.213L16.1832 20.0624H18.8174L16.7137 17.6081H17.0119C20.1172 17.6081 22.9844 15.1204 22.9844 11.5637C22.9844 8.35843 20.2746 5.64058 17.1412 5.64058C15.2515 5.64058 13.9368 6.41943 12.9885 7.56172C12.0914 8.64239 11.5583 9.96916 11.0384 11.258C10.5183 12.547 10.0753 13.6428 9.44047 14.4418C8.86061 15.1715 8.1432 15.6238 6.98971 15.6238C4.67192 15.6238 2.98438 13.7393 2.98438 11.5893C2.98438 9.22321 4.99614 7.62378 6.84781 7.62378C7.93556 7.62378 8.67068 8.00146 8.93258 8.16153C8.94727 8.17051 10.263 6.65034 10.2577 6.64622C9.35156 5.96082 8.01183 5.62378 6.84781 5.62378Z" fill="white" fill-opacity="0.96"/>
</svg>
