<svg width="24" height="24" viewBox="0 0 24 24" fill="none" xmlns="http://www.w3.org/2000/svg">
<path d="M2.15381 2H1.15381V4H2.15381C2.70609 4 3.15381 4.44772 3.15381 5L4.55663 12.7155C4.90245 14.6175 6.55897 16 8.49211 16H15.8155C17.7486 16 19.4052 14.6175 19.751 12.7155L21.1538 5H5.15381C5.15381 3.34315 3.81066 2 2.15381 2ZM6.52437 12.3578L5.55023 7H18.7574L17.7832 12.3578C17.6103 13.3088 16.7821 14 15.8155 14H8.49211C7.52554 14 6.69728 13.3088 6.52437 12.3578Z" fill="#AFAFAF" fill-opacity="0.96"/>
<path d="M7.15381 21C8.25838 21 9.15381 20.1046 9.15381 19C9.15381 17.8954 8.25838 17 7.15381 17C6.04924 17 5.15381 17.8954 5.15381 19C5.15381 20.1046 6.04924 21 7.15381 21Z" fill="#AFAFAF" fill-opacity="0.96"/>
<path d="M19.1538 19C19.1538 20.1046 18.2584 21 17.1538 21C16.0492 21 15.1538 20.1046 15.1538 19C15.1538 17.8954 16.0492 17 17.1538 17C18.2584 17 19.1538 17.8954 19.1538 19Z" fill="#AFAFAF" fill-opacity="0.96"/>
</svg>
