<svg width="24" height="24" viewBox="0 0 24 24" fill="none" xmlns="http://www.w3.org/2000/svg">
<g clip-path="url(#clip0_5599_3972)">
<path fill-rule="evenodd" clip-rule="evenodd" d="M8.32252 18.2582H11.4931C11.4941 18.245 11.4953 18.2329 11.4965 18.2215C11.4989 18.1977 11.5009 18.177 11.5007 18.1556C11.4994 17.5239 11.4984 16.8921 11.4974 16.2604C11.4946 14.5054 11.4917 12.7505 11.484 10.9956C11.4803 10.2 11.4367 9.40835 11.2225 8.63635C10.9531 7.66653 10.4865 6.81853 9.67234 6.19708C8.13597 5.02435 5.81779 5.19926 4.41888 6.58653C4.39038 6.61547 4.35642 6.63847 4.31896 6.6542C4.28152 6.66993 4.24132 6.67808 4.2007 6.67817C4.15931 6.68085 4.11786 6.68338 4.0764 6.68591C3.83662 6.70055 3.59611 6.71524 3.36143 6.75926C1.61706 7.08653 0.262154 8.52326 0.0643355 10.2865C0.00179002 10.8582 0.00178998 11.4393 0.00178998 12.016C-0.00223588 13.5107 -0.000120785 15.0051 0.00199444 16.4997C0.00274509 17.0301 0.00349575 17.5605 0.00397198 18.0909V18.2538H3.1807V18.1069V12.3138C3.18056 12.1229 3.17785 11.932 3.17514 11.7411C3.17072 11.4293 3.1663 11.1175 3.17306 10.8058C3.17471 10.7284 3.17621 10.6509 3.17771 10.5733C3.18781 10.0506 3.19797 9.52552 3.25306 9.00654C3.34215 8.16435 3.66506 7.41163 4.24688 6.78253C4.29215 6.73224 4.35476 6.70094 4.42215 6.6949C5.1687 6.7029 5.87452 6.8709 6.50943 7.27672C7.4487 7.87744 7.94579 8.77053 8.17924 9.83453C8.31128 10.4358 8.31232 11.0485 8.31336 11.6595C8.31346 11.72 8.31356 11.7804 8.31379 11.8407C8.32002 13.3308 8.32069 14.8207 8.32136 16.3107C8.32163 16.9068 8.32189 17.5028 8.32252 18.0989V18.2582ZM23.9976 5.73712H20.8238L20.8241 5.90948V7.37566C20.8278 9.35821 20.8308 11.3409 20.8332 13.3237L20.8333 13.3412C20.8354 13.9601 20.8376 14.5793 20.7263 15.1917C20.5874 15.9568 20.2874 16.6444 19.7554 17.22C19.7139 17.2671 19.6566 17.2974 19.5943 17.3051C18.7863 17.3011 18.0321 17.1044 17.3641 16.6368C16.4968 16.0295 16.039 15.1633 15.8208 14.1509C15.6894 13.543 15.6881 12.9238 15.6867 12.3064C15.6866 12.2524 15.6865 12.1984 15.6863 12.1444C15.6797 10.6407 15.6791 9.13675 15.6784 7.63279C15.6781 7.0506 15.6778 6.4684 15.6772 5.88621V5.74075H12.5085C12.5074 5.75339 12.5064 5.76437 12.5054 5.77421C12.5034 5.79496 12.5019 5.81067 12.5019 5.82621C12.5039 6.51733 12.5054 7.20846 12.5068 7.89956C12.5107 9.73126 12.5145 11.5628 12.5285 13.3935C12.5325 14.1509 12.6194 14.9026 12.8598 15.628C13.1779 16.5913 13.7001 17.4095 14.5688 17.9684C16.1099 18.9589 18.2634 18.7178 19.5808 17.412C19.6087 17.3822 19.6425 17.3585 19.6801 17.3426C19.7177 17.3267 19.7582 17.3189 19.799 17.3197C20.0058 17.3167 20.2121 17.302 20.4172 17.2757C22.3248 17.0186 23.8201 15.4491 23.9612 13.5302C23.9994 13.023 23.9986 12.5125 23.9978 12.003C23.9977 11.9302 23.9976 11.8575 23.9976 11.7848V5.90694V5.73712Z" fill="white" fill-opacity="0.96"/>
</g>
<defs>
<clipPath id="clip0_5599_3972">
<rect width="24" height="13.1589" fill="white" transform="translate(0 5.41992)"/>
</clipPath>
</defs>
</svg>
