<?xml version="1.0" encoding="UTF-8" standalone="no"?>
<svg
   xmlns:dc="http://purl.org/dc/elements/1.1/"
   xmlns:cc="http://creativecommons.org/ns#"
   xmlns:rdf="http://www.w3.org/1999/02/22-rdf-syntax-ns#"
   xmlns:svg="http://www.w3.org/2000/svg"
   xmlns="http://www.w3.org/2000/svg"
   xmlns:sodipodi="http://sodipodi.sourceforge.net/DTD/sodipodi-0.dtd"
   xmlns:inkscape="http://www.inkscape.org/namespaces/inkscape"
   xml:space="preserve"
   version="1.1"
   style="clip-rule:evenodd;fill-rule:evenodd;image-rendering:optimizeQuality;shape-rendering:geometricPrecision;text-rendering:geometricPrecision"
   viewBox="0 0 700 700"
   id="svg18"
   sodipodi:docname="dzarm-logo.svg"
   inkscape:version="0.92.4 (5da689c313, 2019-01-14)"
   width="700"
   height="700"><metadata
     id="metadata22"><rdf:RDF><cc:Work
         rdf:about=""><dc:format>image/svg+xml</dc:format><dc:type
           rdf:resource="http://purl.org/dc/dcmitype/StillImage" /><dc:title></dc:title></cc:Work></rdf:RDF></metadata><sodipodi:namedview
     pagecolor="#ffffff"
     bordercolor="#666666"
     borderopacity="1"
     objecttolerance="10"
     gridtolerance="10"
     guidetolerance="10"
     inkscape:pageopacity="0"
     inkscape:pageshadow="2"
     inkscape:window-width="1600"
     inkscape:window-height="837"
     id="namedview20"
     showgrid="false"
     inkscape:zoom="0.64"
     inkscape:cx="466.88525"
     inkscape:cy="396.5254"
     inkscape:window-x="-8"
     inkscape:window-y="-8"
     inkscape:window-maximized="1"
     inkscape:current-layer="svg18" /><defs
     id="defs4"><style
       type="text/css"
       id="style2"><![CDATA[
    .fil0 {fill:#363435}
   ]]></style></defs><g
     id="Camada_x0020_1"
     style="clip-rule:evenodd;fill:#000000;fill-rule:evenodd;image-rendering:optimizeQuality;shape-rendering:geometricPrecision;text-rendering:geometricPrecision"
     transform="matrix(0.02086674,0,0,0.02086674,91.815826,315.76811)"><metadata
       id="CorelCorpID_0Corel-Layer" /><path
       class="fil0"
       d="m 1,3223 -1,53 1386,5 c 416,0 797,-143 1111,-391 276,-218 541,-665 541,-1180 0,-392 -76,-701 -270,-987 C 2529,368 2148,134 1707,49 1513,11 1369,17 1171,12 1046,8 61,-1 15,11 Z m 663,-2579 -9,2031 662,2 c 608,0 1066,-381 1066,-984 0,-367 -103,-646 -386,-860 C 1644,567 1150,614 664,614 Z"
       id="path7"
       style="fill:#000000"
       inkscape:connector-curvature="0" /><path
       class="fil0"
       d="M 24746,1504 V 13 l -662,-3 -875,1540 c -16,29 -34,77 -61,92 -30,-32 -427,-763 -458,-821 -105,-191 -380,-665 -451,-820 h -695 l -14,3267 c 113,0 578,16 652,-3 l -1,-2184 c 25,15 3,-4 22,19 l 557,1025 c 63,114 133,229 193,341 l 358,2 c 34,-8 676,-1179 762,-1343 5,-10 5,-12 14,-22 12,-15 -3,-2 15,-14 -16,352 -16,731 -15,1087 0,368 -5,735 -5,1102 l 651,3 c 0,-193 -5,-1733 13,-1777 z"
       id="path9"
       style="fill:#000000"
       inkscape:connector-curvature="0" /><path
       class="fil0"
       d="m 16452,129 -14,3142 650,1 6,-1144 463,-3 c 62,92 252,446 328,577 19,33 309,568 338,575 l 755,4 c -15,-48 -151,-264 -187,-325 l -474,-790 c -24,-40 -80,-125 -94,-165 207,-51 367,-185 464,-299 245,-290 259,-817 68,-1159 C 18630,321 18415,169 18169,88 17921,7 17697,4 17424,4 l -972,-4 z m 649,480 -4,990 593,2 c 334,0 531,-169 531,-501 -1,-255 -132,-406 -338,-468 -117,-36 -245,-32 -373,-32 l -310,-1 c -33,-1 -71,-8 -99,10 z"
       id="path11"
       style="fill:#000000"
       inkscape:connector-curvature="0" /><path
       class="fil0"
       d="m 10576,3265 685,4 c 41,-59 186,-497 239,-618 11,-25 6,-33 45,-33 l 1429,5 c 42,44 203,550 255,655 l 694,3 -1213,-3075 c -17,-45 -56,-183 -91,-201 l -725,-2 z m 1173,-1238 c 238,2 790,13 1003,3 -29,-104 -80,-218 -117,-321 -39,-108 -83,-217 -121,-327 -32,-89 -227,-606 -256,-641 -13,11 -3,-1 -13,15 -3,3 -9,15 -10,17 -7,15 -11,28 -17,43 l -225,565 c -31,81 -248,614 -244,646 z"
       id="path13"
       style="fill:#000000"
       inkscape:connector-curvature="0" /><path
       class="fil0"
       d="m 5506,603 1869,8 c -1,43 2,20 -62,78 -26,23 -50,45 -75,70 l -416,444 c -23,26 -46,42 -69,68 l -343,370 c -59,52 -82,94 -143,150 l -759,813 c -31,28 -56,39 -59,89 -12,171 -2,400 -2,577 l 2729,11 2,-604 -1891,-7 c 4,-38 36,-53 62,-76 l 693,-724 c 24,-29 48,-46 72,-74 91,-104 185,-198 275,-301 23,-26 45,-42 68,-69 l 683,-736 c 28,-33 47,-39 47,-101 1,-192 2,-384 2,-577 L 5507,0 Z"
       id="path15"
       style="fill:#000000"
       inkscape:connector-curvature="0" /></g></svg>